<?xml version="1.0" encoding="UTF-8" standalone="no"?> <!-- Created with Vectornator for iOS (http://vectornator.io/) --><!DOCTYPE svg PUBLIC "-//W3C//DTD SVG 1.1//EN" "http://www.w3.org/Graphics/SVG/1.1/DTD/svg11.dtd">
<svg height="100%" style="fill-rule:evenodd;clip-rule:evenodd;stroke-linecap:round;stroke-linejoin:round;" xmlns:xlink="http://www.w3.org/1999/xlink" xmlns="http://www.w3.org/2000/svg" xml:space="preserve" width="100%" xmlns:vectornator="http://vectornator.io" version="1.1" viewBox="0 0 1280 800">
<metadata>
<vectornator:setting key="DisplayWhiteBackground" value="1"/>
<vectornator:setting key="RulersVisible" value="1"/>
<vectornator:setting key="GridSpacing" value="50"/>
<vectornator:setting key="Units" value="Pixels"/>
<vectornator:setting key="DynamicGuides" value="1"/>
<vectornator:setting key="SnapToPoints" value="1"/>
<vectornator:setting key="CMYKEnabledKey" value="0"/>
<vectornator:setting key="SnapToGrid" value="1"/>
<vectornator:setting key="SnapToGuides" value="1"/>
<vectornator:setting key="ShowGrid" value="1"/>
<vectornator:setting key="SnapToEdges" value="1"/>
</metadata>
<defs>
<linearGradient y1="850" id="LinearGradient" x1="-50.0047" y2="50" x2="1400" gradientUnits="userSpaceOnUse" gradientTransform="matrix(1 0 0 1 0.00464916 0)">
<stop stop-color="#4e3044" offset="0.00201613"/>
<stop stop-color="#ff68cc" offset="1"/>
</linearGradient>
</defs>
<g id="Calque 1" vectornator:layerName="Calque 1">
<path d="M0+0L0+700.719C52.4543+707.254+73.3281+757.656+147.719+757.656C227.264+757.656+245.604+700+306.812+700C368.021+700+386.361+757.656+465.906+757.656C545.452+757.656+563.792+700+625+700C686.208+700+704.548+757.656+784.094+757.656C863.639+757.656+881.979+700+943.188+700C1004.4+700+1022.74+757.656+1102.28+757.656C1181.83+757.656+1269.25+682.497+1280+683.895C1280+567.325+1279.58+531.899+1280+299.688C1251.79+334.625+1200+450+1100+450C893.845+450+930.552+184.724+800+250C658.116+320.942+600+400+550+0C310.589+0+0+0+0+0Z" opacity="1" fill="url(#LinearGradient)"/>
</g>
</svg>
